<svg xmlns="http://www.w3.org/2000/svg" viewBox="0 0 946.44 189.36"><defs><style>.cls-1{fill:#1426c8;}.cls-2{fill:#e93e3e;}.cls-3{fill:#fff;}</style></defs><g id="Layer_2" data-name="Layer 2"><g id="Layer_1-2" data-name="Layer 1"><path class="cls-1" d="M460.23,26.85H406.52a26.86,26.86,0,0,1,53.71,0Z"/><path class="cls-2" d="M249.47,66a65.74,65.74,0,0,1-15.74,42.79l-8.59,8.41-50.85,49.83-.06,0A66,66,0,0,1,78.11,170l-.22-.23L23.5,116.54A66,66,0,1,1,124.74,35.77,66,66,0,0,1,249.47,66Z"/><path class="cls-1" d="M19.5,55a33.77,33.77,0,0,0,9.92,24L62,111.59,110,63.64,77.37,31A33.9,33.9,0,0,0,19.5,55Z"/><path class="cls-3" d="M62,111.59l27.11,27.1a33.9,33.9,0,0,0,47.93-47.95L110,63.64Z"/><circle class="cls-3" cx="187.72" cy="60.64" r="34.87"/><path class="cls-2" d="M460.23,26.85a26.86,26.86,0,1,1-53.71,0Z"/><path d="M404.76,72.54A50.65,50.65,0,0,1,400.62,93a52.18,52.18,0,0,1-11.25,16.5,51.13,51.13,0,0,1-16.74,10.94,53.29,53.29,0,0,1-20.4,3.94h-25.4v50.1H297.08V21.1h55.19A53.18,53.18,0,0,1,372.65,25a52,52,0,0,1,16.73,10.84A51.39,51.39,0,0,1,400.63,52.2,50.08,50.08,0,0,1,404.76,72.54ZM375,72.16A28.1,28.1,0,0,0,372.8,61a28.4,28.4,0,0,0-6-9,29.88,29.88,0,0,0-9-6.14,27.15,27.15,0,0,0-11.13-2.3H326.83v58H346.6a26.13,26.13,0,0,0,11.13-2.4,29.48,29.48,0,0,0,9-6.43,30.49,30.49,0,0,0,6-9.31A28.84,28.84,0,0,0,375,72.16Z"/><path d="M420.31,63.33V174.47h28V63.33Z"/><path d="M520.51,173.89a38,38,0,0,1-7.4,2.5,37.51,37.51,0,0,1-8.54,1,42.68,42.68,0,0,1-11.8-1.63,25.94,25.94,0,0,1-9.89-5.28,25.62,25.62,0,0,1-6.72-9.51,35.92,35.92,0,0,1-2.49-14.1V15.15h28.22V142q0,6.9,2.78,9.5a9.36,9.36,0,0,0,6.62,2.59,16.65,16.65,0,0,0,9.22-2.88Z"/><path d="M580.78,173.89a38.09,38.09,0,0,1-7.39,2.5,37.66,37.66,0,0,1-8.55,1,42.68,42.68,0,0,1-11.8-1.63,25.94,25.94,0,0,1-9.89-5.28,25.49,25.49,0,0,1-6.71-9.51,35.74,35.74,0,0,1-2.5-14.1V15.15h28.22V142q0,6.9,2.78,9.5a9.36,9.36,0,0,0,6.62,2.59,16.65,16.65,0,0,0,9.22-2.88Z"/><path d="M700.94,119a63.1,63.1,0,0,1-4,22.27,58,58,0,0,1-11.06,18.52A53.46,53.46,0,0,1,669,172.45a49.12,49.12,0,0,1-21.55,4.7,45.07,45.07,0,0,1-13.66-2,37.39,37.39,0,0,1-11.93-6.43v5.76H594.21V15.15H622l.2,53.75a38.09,38.09,0,0,1,11.42-6.15,42.15,42.15,0,0,1,13.91-2.3A46.1,46.1,0,0,1,667.34,65a56.87,56.87,0,0,1,17.09,12.38,61.12,61.12,0,0,1,12,18.52A58.72,58.72,0,0,1,700.94,119Zm-28,0a40.65,40.65,0,0,0-2.31-14,32,32,0,0,0-6.46-10.84,27.86,27.86,0,0,0-9.82-6.91,32.15,32.15,0,0,0-12.62-2.4,34.62,34.62,0,0,0-10.21,1.82,32.21,32.21,0,0,0-9.64,4.7v53.37q9.06,8.25,20.43,8.25a30,30,0,0,0,12.23-2.5,28,28,0,0,0,9.73-7,33.11,33.11,0,0,0,6.36-10.75A39.29,39.29,0,0,0,672.91,119Z"/><path d="M832.8,119a57.65,57.65,0,0,1-4.6,23.13,56.34,56.34,0,0,1-12.67,18.43,60.48,60.48,0,0,1-18.91,12.29,59.75,59.75,0,0,1-23.13,4.51,59,59,0,0,1-23-4.51,59.64,59.64,0,0,1-18.81-12.39A57.44,57.44,0,0,1,714.37,119a55.75,55.75,0,0,1,4.7-22.74,60,60,0,0,1,12.77-18.62,59,59,0,0,1,41.65-17,60.46,60.46,0,0,1,42,16.8A56.2,56.2,0,0,1,828.2,96,57.9,57.9,0,0,1,832.8,119Zm-27.64,0a34.9,34.9,0,0,0-9.28-24,31.22,31.22,0,0,0-10-7.2,30.24,30.24,0,0,0-24.49,0A31.22,31.22,0,0,0,751.29,95a35.44,35.44,0,0,0,0,48,31.22,31.22,0,0,0,10.05,7.2,30.24,30.24,0,0,0,24.49,0,31.22,31.22,0,0,0,10-7.2,34.55,34.55,0,0,0,6.79-10.75A35,35,0,0,0,805.16,119Z"/><path d="M946.44,174.66H914.77l-23-35.51-23.22,35.51H836.84l39.54-58.16L840.1,63.33h31.29l20.34,31.09,20.16-31.09h31.48L906.9,116.5Z"/></g></g></svg>